# xmcd
#
# Track frame offsets: 
#        150
#        26685
#        66969
#        96756
#        130532
#        158363
#        181982
#        213964
#
# Disc length: 3348 seconds
#
# Revision: 1
# Processed by: cddbd v1.5.1PL0 Copyright (c) Steve Scherf et al.
# Submitted via: ExactAudioCopy v0.95a5
#
DISCID=5e0d1208
DTITLE=Ryan Kisor - The Dream
DYEAR=2001
DGENRE=Jazz
TTITLE0=Minor Ordeal
TTITLE1=The Dream
TTITLE2=Deception
TTITLE3=Calypso Cove
TTITLE4=Bert's Blues
TTITLE5=Panic Attack
TTITLE6=I Should Care
TTITLE7=Fiesta Mojo
EXTD=YEAR: 2001
EXTT0=
EXTT1=
EXTT2=
EXTT3=
EXTT4=
EXTT5=
EXTT6=
EXTT7=
PLAYORDER=
